%TF.GenerationSoftware,KiCad,Pcbnew,7.0.11+dfsg-1build4*%
%TF.CreationDate,2026-09-29T13:32:47+00:00*%
%TF.ProjectId,sht45_breakout,73687434-355f-4627-9265-616b6f75742e,1.0*%
%TF.SameCoordinates,Original*%
%TF.FileFunction,Legend,Top*%
%TF.FilePolarity,Positive*%
%FSLAX46Y46*%
G04 Gerber Fmt 4.6, Leading zero omitted, Abs format (unit mm)*
G04 Created by KiCad (PCBNEW 7.0.11+dfsg-1build4) date 2026-09-29 13:32:47*
%MOMM*%
%LPD*%
G01*
G04 APERTURE LIST*
G04 Aperture macros list*
%AMRoundRect*
0 Rectangle with rounded corners*
0 $1 Rounding radius*
0 $2 $3 $4 $5 $6 $7 $8 $9 X,Y pos of 4 corners*
0 Add a 4 corners polygon primitive as box body*
4,1,4,$2,$3,$4,$5,$6,$7,$8,$9,$2,$3,0*
0 Add four circle primitives for the rounded corners*
1,1,$1+$1,$2,$3*
1,1,$1+$1,$4,$5*
1,1,$1+$1,$6,$7*
1,1,$1+$1,$8,$9*
0 Add four rect primitives between the rounded corners*
20,1,$1+$1,$2,$3,$4,$5,0*
20,1,$1+$1,$4,$5,$6,$7,0*
20,1,$1+$1,$6,$7,$8,$9,0*
20,1,$1+$1,$8,$9,$2,$3,0*%
G04 Aperture macros list end*
%ADD10C,0.150000*%
%ADD11C,0.120000*%
%ADD12C,2.200000*%
%ADD13R,1.700000X1.700000*%
%ADD14O,1.700000X1.700000*%
%ADD15RoundRect,0.225000X-0.225000X-0.250000X0.225000X-0.250000X0.225000X0.250000X-0.225000X0.250000X0*%
%ADD16RoundRect,0.250000X-0.600000X-0.725000X0.600000X-0.725000X0.600000X0.725000X-0.600000X0.725000X0*%
%ADD17O,1.700000X1.950000*%
%ADD18RoundRect,0.200000X0.200000X0.275000X-0.200000X0.275000X-0.200000X-0.275000X0.200000X-0.275000X0*%
%ADD19R,0.300000X0.500000*%
G04 APERTURE END LIST*
D10*
X106196667Y-109249366D02*
X106130000Y-109216033D01*
X106130000Y-109216033D02*
X106030000Y-109216033D01*
X106030000Y-109216033D02*
X105930000Y-109249366D01*
X105930000Y-109249366D02*
X105863334Y-109316033D01*
X105863334Y-109316033D02*
X105830000Y-109382700D01*
X105830000Y-109382700D02*
X105796667Y-109516033D01*
X105796667Y-109516033D02*
X105796667Y-109616033D01*
X105796667Y-109616033D02*
X105830000Y-109749366D01*
X105830000Y-109749366D02*
X105863334Y-109816033D01*
X105863334Y-109816033D02*
X105930000Y-109882700D01*
X105930000Y-109882700D02*
X106030000Y-109916033D01*
X106030000Y-109916033D02*
X106096667Y-109916033D01*
X106096667Y-109916033D02*
X106196667Y-109882700D01*
X106196667Y-109882700D02*
X106230000Y-109849366D01*
X106230000Y-109849366D02*
X106230000Y-109616033D01*
X106230000Y-109616033D02*
X106096667Y-109616033D01*
X106530000Y-109916033D02*
X106530000Y-109216033D01*
X106530000Y-109216033D02*
X106930000Y-109916033D01*
X106930000Y-109916033D02*
X106930000Y-109216033D01*
X107263333Y-109916033D02*
X107263333Y-109216033D01*
X107263333Y-109216033D02*
X107430000Y-109216033D01*
X107430000Y-109216033D02*
X107530000Y-109249366D01*
X107530000Y-109249366D02*
X107596667Y-109316033D01*
X107596667Y-109316033D02*
X107630000Y-109382700D01*
X107630000Y-109382700D02*
X107663333Y-109516033D01*
X107663333Y-109516033D02*
X107663333Y-109616033D01*
X107663333Y-109616033D02*
X107630000Y-109749366D01*
X107630000Y-109749366D02*
X107596667Y-109816033D01*
X107596667Y-109816033D02*
X107530000Y-109882700D01*
X107530000Y-109882700D02*
X107430000Y-109916033D01*
X107430000Y-109916033D02*
X107263333Y-109916033D01*
X110960000Y-109882700D02*
X111060000Y-109916033D01*
X111060000Y-109916033D02*
X111226667Y-109916033D01*
X111226667Y-109916033D02*
X111293333Y-109882700D01*
X111293333Y-109882700D02*
X111326667Y-109849366D01*
X111326667Y-109849366D02*
X111360000Y-109782700D01*
X111360000Y-109782700D02*
X111360000Y-109716033D01*
X111360000Y-109716033D02*
X111326667Y-109649366D01*
X111326667Y-109649366D02*
X111293333Y-109616033D01*
X111293333Y-109616033D02*
X111226667Y-109582700D01*
X111226667Y-109582700D02*
X111093333Y-109549366D01*
X111093333Y-109549366D02*
X111026667Y-109516033D01*
X111026667Y-109516033D02*
X110993333Y-109482700D01*
X110993333Y-109482700D02*
X110960000Y-109416033D01*
X110960000Y-109416033D02*
X110960000Y-109349366D01*
X110960000Y-109349366D02*
X110993333Y-109282700D01*
X110993333Y-109282700D02*
X111026667Y-109249366D01*
X111026667Y-109249366D02*
X111093333Y-109216033D01*
X111093333Y-109216033D02*
X111260000Y-109216033D01*
X111260000Y-109216033D02*
X111360000Y-109249366D01*
X111660000Y-109916033D02*
X111660000Y-109216033D01*
X111660000Y-109216033D02*
X111826667Y-109216033D01*
X111826667Y-109216033D02*
X111926667Y-109249366D01*
X111926667Y-109249366D02*
X111993334Y-109316033D01*
X111993334Y-109316033D02*
X112026667Y-109382700D01*
X112026667Y-109382700D02*
X112060000Y-109516033D01*
X112060000Y-109516033D02*
X112060000Y-109616033D01*
X112060000Y-109616033D02*
X112026667Y-109749366D01*
X112026667Y-109749366D02*
X111993334Y-109816033D01*
X111993334Y-109816033D02*
X111926667Y-109882700D01*
X111926667Y-109882700D02*
X111826667Y-109916033D01*
X111826667Y-109916033D02*
X111660000Y-109916033D01*
X112326667Y-109716033D02*
X112660000Y-109716033D01*
X112260000Y-109916033D02*
X112493334Y-109216033D01*
X112493334Y-109216033D02*
X112726667Y-109916033D01*
X108436666Y-109882700D02*
X108536666Y-109916033D01*
X108536666Y-109916033D02*
X108703333Y-109916033D01*
X108703333Y-109916033D02*
X108769999Y-109882700D01*
X108769999Y-109882700D02*
X108803333Y-109849366D01*
X108803333Y-109849366D02*
X108836666Y-109782700D01*
X108836666Y-109782700D02*
X108836666Y-109716033D01*
X108836666Y-109716033D02*
X108803333Y-109649366D01*
X108803333Y-109649366D02*
X108769999Y-109616033D01*
X108769999Y-109616033D02*
X108703333Y-109582700D01*
X108703333Y-109582700D02*
X108569999Y-109549366D01*
X108569999Y-109549366D02*
X108503333Y-109516033D01*
X108503333Y-109516033D02*
X108469999Y-109482700D01*
X108469999Y-109482700D02*
X108436666Y-109416033D01*
X108436666Y-109416033D02*
X108436666Y-109349366D01*
X108436666Y-109349366D02*
X108469999Y-109282700D01*
X108469999Y-109282700D02*
X108503333Y-109249366D01*
X108503333Y-109249366D02*
X108569999Y-109216033D01*
X108569999Y-109216033D02*
X108736666Y-109216033D01*
X108736666Y-109216033D02*
X108836666Y-109249366D01*
X109536666Y-109849366D02*
X109503333Y-109882700D01*
X109503333Y-109882700D02*
X109403333Y-109916033D01*
X109403333Y-109916033D02*
X109336666Y-109916033D01*
X109336666Y-109916033D02*
X109236666Y-109882700D01*
X109236666Y-109882700D02*
X109170000Y-109816033D01*
X109170000Y-109816033D02*
X109136666Y-109749366D01*
X109136666Y-109749366D02*
X109103333Y-109616033D01*
X109103333Y-109616033D02*
X109103333Y-109516033D01*
X109103333Y-109516033D02*
X109136666Y-109382700D01*
X109136666Y-109382700D02*
X109170000Y-109316033D01*
X109170000Y-109316033D02*
X109236666Y-109249366D01*
X109236666Y-109249366D02*
X109336666Y-109216033D01*
X109336666Y-109216033D02*
X109403333Y-109216033D01*
X109403333Y-109216033D02*
X109503333Y-109249366D01*
X109503333Y-109249366D02*
X109536666Y-109282700D01*
X110170000Y-109916033D02*
X109836666Y-109916033D01*
X109836666Y-109916033D02*
X109836666Y-109216033D01*
X103256666Y-109216033D02*
X103490000Y-109916033D01*
X103490000Y-109916033D02*
X103723333Y-109216033D01*
X104356666Y-109849366D02*
X104323333Y-109882700D01*
X104323333Y-109882700D02*
X104223333Y-109916033D01*
X104223333Y-109916033D02*
X104156666Y-109916033D01*
X104156666Y-109916033D02*
X104056666Y-109882700D01*
X104056666Y-109882700D02*
X103990000Y-109816033D01*
X103990000Y-109816033D02*
X103956666Y-109749366D01*
X103956666Y-109749366D02*
X103923333Y-109616033D01*
X103923333Y-109616033D02*
X103923333Y-109516033D01*
X103923333Y-109516033D02*
X103956666Y-109382700D01*
X103956666Y-109382700D02*
X103990000Y-109316033D01*
X103990000Y-109316033D02*
X104056666Y-109249366D01*
X104056666Y-109249366D02*
X104156666Y-109216033D01*
X104156666Y-109216033D02*
X104223333Y-109216033D01*
X104223333Y-109216033D02*
X104323333Y-109249366D01*
X104323333Y-109249366D02*
X104356666Y-109282700D01*
X105056666Y-109849366D02*
X105023333Y-109882700D01*
X105023333Y-109882700D02*
X104923333Y-109916033D01*
X104923333Y-109916033D02*
X104856666Y-109916033D01*
X104856666Y-109916033D02*
X104756666Y-109882700D01*
X104756666Y-109882700D02*
X104690000Y-109816033D01*
X104690000Y-109816033D02*
X104656666Y-109749366D01*
X104656666Y-109749366D02*
X104623333Y-109616033D01*
X104623333Y-109616033D02*
X104623333Y-109516033D01*
X104623333Y-109516033D02*
X104656666Y-109382700D01*
X104656666Y-109382700D02*
X104690000Y-109316033D01*
X104690000Y-109316033D02*
X104756666Y-109249366D01*
X104756666Y-109249366D02*
X104856666Y-109216033D01*
X104856666Y-109216033D02*
X104923333Y-109216033D01*
X104923333Y-109216033D02*
X105023333Y-109249366D01*
X105023333Y-109249366D02*
X105056666Y-109282700D01*
D11*
%TO.C,C1*%
X107459420Y-103890000D02*
X107740580Y-103890000D01*
X107459420Y-104910000D02*
X107740580Y-104910000D01*
%TO.C,J2*%
X101400000Y-113000000D02*
X101400000Y-114250000D01*
X101690000Y-113290000D02*
X101690000Y-119260000D01*
X101690000Y-119260000D02*
X114310000Y-119260000D01*
X101700000Y-113300000D02*
X101700000Y-114050000D01*
X101700000Y-114050000D02*
X103500000Y-114050000D01*
X101700000Y-115550000D02*
X102450000Y-115550000D01*
X102450000Y-115550000D02*
X102450000Y-118500000D01*
X102450000Y-118500000D02*
X108000000Y-118500000D01*
X102650000Y-113000000D02*
X101400000Y-113000000D01*
X103500000Y-113300000D02*
X101700000Y-113300000D01*
X103500000Y-114050000D02*
X103500000Y-113300000D01*
X105000000Y-113300000D02*
X105000000Y-114050000D01*
X105000000Y-114050000D02*
X111000000Y-114050000D01*
X111000000Y-113300000D02*
X105000000Y-113300000D01*
X111000000Y-114050000D02*
X111000000Y-113300000D01*
X112500000Y-113300000D02*
X112500000Y-114050000D01*
X112500000Y-114050000D02*
X114300000Y-114050000D01*
X113550000Y-115550000D02*
X113550000Y-118500000D01*
X113550000Y-118500000D02*
X108000000Y-118500000D01*
X114300000Y-113300000D02*
X112500000Y-113300000D01*
X114300000Y-114050000D02*
X114300000Y-113300000D01*
X114300000Y-115550000D02*
X113550000Y-115550000D01*
X114310000Y-113290000D02*
X101690000Y-113290000D01*
X114310000Y-119260000D02*
X114310000Y-113290000D01*
%TO.C,R2*%
X111737258Y-107322500D02*
X111262742Y-107322500D01*
X111737258Y-106277500D02*
X111262742Y-106277500D01*
%TO.C,U1*%
X108460000Y-101650000D02*
X108460000Y-103150000D01*
X106740000Y-101650000D02*
X106740000Y-103150000D01*
X108480000Y-101200000D02*
X108200000Y-101200000D01*
X108200000Y-100920000D01*
X108480000Y-101200000D01*
G36*
X108480000Y-101200000D02*
G01*
X108200000Y-101200000D01*
X108200000Y-100920000D01*
X108480000Y-101200000D01*
G37*
%TO.C,R1*%
X111737258Y-108972500D02*
X111262742Y-108972500D01*
X111737258Y-107927500D02*
X111262742Y-107927500D01*
%TD*%
%LPC*%
D12*
%TO.C,H2*%
X113700000Y-102600000D03*
%TD*%
D13*
%TO.C,J1*%
X104190000Y-111100000D03*
D14*
X106730000Y-111100000D03*
X109270000Y-111100000D03*
X111810000Y-111100000D03*
%TD*%
D15*
%TO.C,C1*%
X106825000Y-104400000D03*
X108375000Y-104400000D03*
%TD*%
D16*
%TO.C,J2*%
X104250000Y-115750000D03*
D17*
X106750000Y-115750000D03*
X109250000Y-115750000D03*
X111750000Y-115750000D03*
%TD*%
D18*
%TO.C,R2*%
X112325000Y-106800000D03*
X110675000Y-106800000D03*
%TD*%
D12*
%TO.C,H1*%
X102300000Y-102600000D03*
%TD*%
D19*
%TO.C,U1*%
X108000000Y-101700000D03*
X107200000Y-101700000D03*
X107200000Y-103100000D03*
X108000000Y-103100000D03*
%TD*%
D18*
%TO.C,R1*%
X112325000Y-108450000D03*
X110675000Y-108450000D03*
%TD*%
%LPD*%
M02*
