%TF.GenerationSoftware,KiCad,Pcbnew,7.0.11+dfsg-1build4*%
%TF.CreationDate,2026-09-29T13:02:32+00:00*%
%TF.ProjectId,sht45_breakout,73687434-355f-4627-9265-616b6f75742e,1.0*%
%TF.SameCoordinates,Original*%
%TF.FileFunction,Copper,L1,Top*%
%TF.FilePolarity,Positive*%
%FSLAX46Y46*%
G04 Gerber Fmt 4.6, Leading zero omitted, Abs format (unit mm)*
G04 Created by KiCad (PCBNEW 7.0.11+dfsg-1build4) date 2026-09-29 13:02:32*
%MOMM*%
%LPD*%
G01*
G04 APERTURE LIST*
G04 Aperture macros list*
%AMRoundRect*
0 Rectangle with rounded corners*
0 $1 Rounding radius*
0 $2 $3 $4 $5 $6 $7 $8 $9 X,Y pos of 4 corners*
0 Add a 4 corners polygon primitive as box body*
4,1,4,$2,$3,$4,$5,$6,$7,$8,$9,$2,$3,0*
0 Add four circle primitives for the rounded corners*
1,1,$1+$1,$2,$3*
1,1,$1+$1,$4,$5*
1,1,$1+$1,$6,$7*
1,1,$1+$1,$8,$9*
0 Add four rect primitives between the rounded corners*
20,1,$1+$1,$2,$3,$4,$5,0*
20,1,$1+$1,$4,$5,$6,$7,0*
20,1,$1+$1,$6,$7,$8,$9,0*
20,1,$1+$1,$8,$9,$2,$3,0*%
G04 Aperture macros list end*
%TA.AperFunction,ComponentPad*%
%ADD10R,1.700000X1.700000*%
%TD*%
%TA.AperFunction,ComponentPad*%
%ADD11O,1.700000X1.700000*%
%TD*%
%TA.AperFunction,SMDPad,CuDef*%
%ADD12RoundRect,0.225000X-0.225000X-0.250000X0.225000X-0.250000X0.225000X0.250000X-0.225000X0.250000X0*%
%TD*%
%TA.AperFunction,SMDPad,CuDef*%
%ADD13RoundRect,0.200000X0.200000X0.275000X-0.200000X0.275000X-0.200000X-0.275000X0.200000X-0.275000X0*%
%TD*%
%TA.AperFunction,SMDPad,CuDef*%
%ADD14R,0.300000X0.500000*%
%TD*%
%TA.AperFunction,ViaPad*%
%ADD15C,0.600000*%
%TD*%
%TA.AperFunction,Conductor*%
%ADD16C,0.250000*%
%TD*%
%TA.AperFunction,Conductor*%
%ADD17C,0.150000*%
%TD*%
%TA.AperFunction,Conductor*%
%ADD18C,0.200000*%
%TD*%
G04 APERTURE END LIST*
D10*
%TO.P,J1,1*%
%TO.N,VCC*%
X101290000Y-111100000D03*
D11*
%TO.P,J1,2*%
%TO.N,GND*%
X103830000Y-111100000D03*
%TO.P,J1,3*%
%TO.N,/SCL*%
X106370000Y-111100000D03*
%TO.P,J1,4*%
%TO.N,/SDA*%
X108910000Y-111100000D03*
%TD*%
D12*
%TO.P,C1,1*%
%TO.N,VCC*%
X103925000Y-104400000D03*
%TO.P,C1,2*%
%TO.N,GND*%
X105475000Y-104400000D03*
%TD*%
D13*
%TO.P,R1,1*%
%TO.N,/PU*%
X109425000Y-108450000D03*
%TO.P,R1,2*%
%TO.N,/SDA*%
X107775000Y-108450000D03*
%TD*%
%TO.P,R2,1*%
%TO.N,/PU*%
X109425000Y-106800000D03*
%TO.P,R2,2*%
%TO.N,/SCL*%
X107775000Y-106800000D03*
%TD*%
D14*
%TO.P,U1,1*%
%TO.N,/SDA*%
X105100000Y-101700000D03*
%TO.P,U1,2*%
%TO.N,/SCL*%
X104300000Y-101700000D03*
%TO.P,U1,3*%
%TO.N,VCC*%
X104300000Y-103100000D03*
%TO.P,U1,4*%
%TO.N,GND*%
X105100000Y-103100000D03*
%TD*%
D15*
%TO.N,/SDA*%
X106000000Y-108200000D03*
%TO.N,/PU*%
X108600000Y-107625000D03*
%TD*%
D16*
%TO.N,VCC*%
X101290000Y-109234999D02*
X101290000Y-111100000D01*
D17*
X104300000Y-103100000D02*
X103925000Y-104400000D01*
X103925000Y-104400000D02*
X103925000Y-106200000D01*
D16*
X103925000Y-106600000D02*
X101290000Y-109234999D01*
X103925000Y-106200000D02*
X103925000Y-106600000D01*
%TO.N,GND*%
X105475000Y-107000000D02*
X103830000Y-108645000D01*
X103830000Y-108645000D02*
X103830000Y-111100000D01*
D17*
X105100000Y-103100000D02*
X105475000Y-104400000D01*
X105475000Y-104400000D02*
X105475000Y-106200000D01*
D16*
X105475000Y-106200000D02*
X105475000Y-107000000D01*
D18*
%TO.N,/SDA*%
X108910000Y-109585000D02*
X108910000Y-111100000D01*
D17*
X105300000Y-101200000D02*
X106050000Y-101200000D01*
D18*
X106250000Y-106500000D02*
X106000000Y-106750000D01*
D17*
X105100000Y-101400000D02*
X105300000Y-101200000D01*
X106250000Y-101400000D02*
X106250000Y-106500000D01*
D18*
X107775000Y-108450000D02*
X108910000Y-109585000D01*
D17*
X106050000Y-101200000D02*
X106250000Y-101400000D01*
X105100000Y-101700000D02*
X105100000Y-101400000D01*
D18*
X106000000Y-106750000D02*
X106000000Y-108200000D01*
D17*
%TO.N,/SCL*%
X106550000Y-100700000D02*
X106750000Y-100900000D01*
D18*
X106750000Y-106800000D02*
X107775000Y-106800000D01*
D17*
X104300000Y-101700000D02*
X104300000Y-100900000D01*
X104500000Y-100700000D02*
X106550000Y-100700000D01*
X106750000Y-100900000D02*
X106750000Y-106500000D01*
D18*
X106750000Y-106500000D02*
X106750000Y-106800000D01*
X106750000Y-106800000D02*
X106750000Y-110000000D01*
X106750000Y-110000000D02*
X106370000Y-111100000D01*
D17*
X104300000Y-100900000D02*
X104500000Y-100700000D01*
D18*
%TO.N,/PU*%
X109425000Y-106800000D02*
X108600000Y-107625000D01*
X108600000Y-107625000D02*
X109425000Y-108450000D01*
%TD*%
M02*
