%TF.GenerationSoftware,KiCad,Pcbnew,7.0.11+dfsg-1build4*%
%TF.CreationDate,2026-09-29T09:56:42+00:00*%
%TF.ProjectId,sht45_breakout,73687434-355f-4627-9265-616b6f75742e,1.0*%
%TF.SameCoordinates,Original*%
%TF.FileFunction,Copper,L1,Top*%
%TF.FilePolarity,Positive*%
%FSLAX46Y46*%
G04 Gerber Fmt 4.6, Leading zero omitted, Abs format (unit mm)*
G04 Created by KiCad (PCBNEW 7.0.11+dfsg-1build4) date 2026-09-29 09:56:42*
%MOMM*%
%LPD*%
G01*
G04 APERTURE LIST*
G04 Aperture macros list*
%AMRoundRect*
0 Rectangle with rounded corners*
0 $1 Rounding radius*
0 $2 $3 $4 $5 $6 $7 $8 $9 X,Y pos of 4 corners*
0 Add a 4 corners polygon primitive as box body*
4,1,4,$2,$3,$4,$5,$6,$7,$8,$9,$2,$3,0*
0 Add four circle primitives for the rounded corners*
1,1,$1+$1,$2,$3*
1,1,$1+$1,$4,$5*
1,1,$1+$1,$6,$7*
1,1,$1+$1,$8,$9*
0 Add four rect primitives between the rounded corners*
20,1,$1+$1,$2,$3,$4,$5,0*
20,1,$1+$1,$4,$5,$6,$7,0*
20,1,$1+$1,$6,$7,$8,$9,0*
20,1,$1+$1,$8,$9,$2,$3,0*%
G04 Aperture macros list end*
%TA.AperFunction,SMDPad,CuDef*%
%ADD10RoundRect,0.140000X-0.140000X-0.170000X0.140000X-0.170000X0.140000X0.170000X-0.140000X0.170000X0*%
%TD*%
%TA.AperFunction,SMDPad,CuDef*%
%ADD11RoundRect,0.135000X-0.185000X0.135000X-0.185000X-0.135000X0.185000X-0.135000X0.185000X0.135000X0*%
%TD*%
%TA.AperFunction,SMDPad,CuDef*%
%ADD12R,0.300000X0.500000*%
%TD*%
%TA.AperFunction,ComponentPad*%
%ADD13R,1.700000X1.700000*%
%TD*%
%TA.AperFunction,ComponentPad*%
%ADD14O,1.700000X1.700000*%
%TD*%
%TA.AperFunction,ViaPad*%
%ADD15C,0.600000*%
%TD*%
%TA.AperFunction,Conductor*%
%ADD16C,0.150000*%
%TD*%
%TA.AperFunction,Conductor*%
%ADD17C,0.250000*%
%TD*%
%TA.AperFunction,Conductor*%
%ADD18C,0.200000*%
%TD*%
G04 APERTURE END LIST*
D10*
%TO.P,C1,1*%
%TO.N,VCC*%
X104270000Y-104100000D03*
%TO.P,C1,2*%
%TO.N,GND*%
X105230000Y-104100000D03*
%TD*%
D11*
%TO.P,R1,1*%
%TO.N,/PU*%
X108910000Y-107690000D03*
%TO.P,R1,2*%
%TO.N,/SDA*%
X108910000Y-108710000D03*
%TD*%
D12*
%TO.P,U1,1*%
%TO.N,/SDA*%
X105150000Y-101700000D03*
%TO.P,U1,2*%
%TO.N,/SCL*%
X104350000Y-101700000D03*
%TO.P,U1,3*%
%TO.N,VCC*%
X104350000Y-103100000D03*
%TO.P,U1,4*%
%TO.N,GND*%
X105150000Y-103100000D03*
%TD*%
D13*
%TO.P,J1,1*%
%TO.N,VCC*%
X101290000Y-111100000D03*
D14*
%TO.P,J1,2*%
%TO.N,GND*%
X103830000Y-111100000D03*
%TO.P,J1,3*%
%TO.N,/SCL*%
X106370000Y-111100000D03*
%TO.P,J1,4*%
%TO.N,/SDA*%
X108910000Y-111100000D03*
%TD*%
D11*
%TO.P,R2,1*%
%TO.N,/PU*%
X107750000Y-107690000D03*
%TO.P,R2,2*%
%TO.N,/SCL*%
X107750000Y-108710000D03*
%TD*%
D15*
%TO.N,/SDA*%
X105950000Y-107900000D03*
%TO.N,/PU*%
X108330000Y-106850000D03*
%TD*%
D16*
%TO.N,VCC*%
X104270000Y-104100000D02*
X104270000Y-106200000D01*
D17*
X101290000Y-109579999D02*
X101290000Y-111100000D01*
X104270000Y-106200000D02*
X104270000Y-106600000D01*
X104270000Y-106600000D02*
X101290000Y-109579999D01*
D16*
X104350000Y-103100000D02*
X104270000Y-104100000D01*
D17*
%TO.N,GND*%
X103830000Y-108800000D02*
X103830000Y-111100000D01*
X105230000Y-107400000D02*
X103830000Y-108800000D01*
D16*
X105150000Y-103100000D02*
X105230000Y-104100000D01*
X105230000Y-104100000D02*
X105230000Y-106200000D01*
D17*
X105230000Y-106200000D02*
X105230000Y-107400000D01*
D16*
%TO.N,/SDA*%
X105750000Y-101200000D02*
X105950000Y-101400000D01*
D18*
X108910000Y-108710000D02*
X108910000Y-111100000D01*
D16*
X105350000Y-101200000D02*
X105750000Y-101200000D01*
X105950000Y-101400000D02*
X105950000Y-107900000D01*
X105150000Y-101700000D02*
X105150000Y-101400000D01*
X105150000Y-101400000D02*
X105350000Y-101200000D01*
%TO.N,/SCL*%
X106550000Y-100900000D02*
X106550000Y-106500000D01*
X104350000Y-101700000D02*
X104350000Y-100900000D01*
D18*
X106550000Y-106500000D02*
X106550000Y-108710000D01*
D16*
X106350000Y-100700000D02*
X106550000Y-100900000D01*
X104350000Y-100900000D02*
X104550000Y-100700000D01*
D18*
X106550000Y-108710000D02*
X107750000Y-108710000D01*
D16*
X104550000Y-100700000D02*
X106350000Y-100700000D01*
D18*
X106550000Y-110000000D02*
X106370000Y-111100000D01*
X106550000Y-108710000D02*
X106550000Y-110000000D01*
%TO.N,/PU*%
X107750000Y-107690000D02*
X108910000Y-107690000D01*
X108330000Y-106850000D02*
X108330000Y-107690000D01*
%TD*%
M02*
