%TF.GenerationSoftware,KiCad,Pcbnew,7.0.11+dfsg-1build4*%
%TF.CreationDate,2026-09-29T13:02:48+00:00*%
%TF.ProjectId,sht45_breakout,73687434-355f-4627-9265-616b6f75742e,1.0*%
%TF.SameCoordinates,Original*%
%TF.FileFunction,Drillmap*%
%TF.FilePolarity,Positive*%
%FSLAX45Y45*%
G04 Gerber Fmt 4.5, Leading zero omitted, Abs format (unit mm)*
G04 Created by KiCad (PCBNEW 7.0.11+dfsg-1build4) date 2026-09-29 13:02:48*
%MOMM*%
%LPD*%
G01*
G04 APERTURE LIST*
%ADD10C,0.050000*%
%ADD11C,0.200000*%
%ADD12C,0.100000*%
G04 APERTURE END LIST*
D10*
X10000000Y-11200000D02*
G75*
G03*
X10050000Y-11250000I50000J0D01*
G01*
X10340000Y-10000000D02*
X10680000Y-10000000D01*
X10050000Y-10600000D02*
G75*
G03*
X10000000Y-10650000I0J-50000D01*
G01*
X10730000Y-10550000D02*
G75*
G03*
X10780000Y-10600000I50000J0D01*
G01*
X10730000Y-10050000D02*
G75*
G03*
X10680000Y-10000000I-50000J0D01*
G01*
X11020000Y-10650000D02*
X11020000Y-11200000D01*
X10340000Y-10000000D02*
G75*
G03*
X10290000Y-10050000I0J-50000D01*
G01*
X10050000Y-10600000D02*
X10240000Y-10600000D01*
X10730000Y-10050000D02*
X10730000Y-10550000D01*
X11020000Y-10650000D02*
G75*
G03*
X10970000Y-10600000I-50000J0D01*
G01*
X10970000Y-11250000D02*
X10050000Y-11250000D01*
X10240000Y-10600000D02*
G75*
G03*
X10290000Y-10550000I0J50000D01*
G01*
X10000000Y-11200000D02*
X10000000Y-10650000D01*
X10290000Y-10550000D02*
X10290000Y-10050000D01*
X10970000Y-11250000D02*
G75*
G03*
X11020000Y-11200000I0J50000D01*
G01*
X10780000Y-10600000D02*
X10970000Y-10600000D01*
D11*
D12*
X10585000Y-10805000D02*
X10615000Y-10835000D01*
X10615000Y-10805000D02*
X10585000Y-10835000D01*
X10845000Y-10747500D02*
X10875000Y-10777500D01*
X10875000Y-10747500D02*
X10845000Y-10777500D01*
X10179000Y-11110000D02*
G75*
G03*
X10079000Y-11110000I-50000J0D01*
G01*
X10079000Y-11110000D02*
G75*
G03*
X10179000Y-11110000I50000J0D01*
G01*
X10433000Y-11110000D02*
G75*
G03*
X10333000Y-11110000I-50000J0D01*
G01*
X10333000Y-11110000D02*
G75*
G03*
X10433000Y-11110000I50000J0D01*
G01*
X10687000Y-11110000D02*
G75*
G03*
X10587000Y-11110000I-50000J0D01*
G01*
X10587000Y-11110000D02*
G75*
G03*
X10687000Y-11110000I50000J0D01*
G01*
X10941000Y-11110000D02*
G75*
G03*
X10841000Y-11110000I-50000J0D01*
G01*
X10841000Y-11110000D02*
G75*
G03*
X10941000Y-11110000I50000J0D01*
G01*
D11*
X10258277Y-11563984D02*
X10258277Y-11363984D01*
X10258277Y-11363984D02*
X10305896Y-11363984D01*
X10305896Y-11363984D02*
X10334467Y-11373508D01*
X10334467Y-11373508D02*
X10353515Y-11392555D01*
X10353515Y-11392555D02*
X10363039Y-11411603D01*
X10363039Y-11411603D02*
X10372563Y-11449698D01*
X10372563Y-11449698D02*
X10372563Y-11478269D01*
X10372563Y-11478269D02*
X10363039Y-11516365D01*
X10363039Y-11516365D02*
X10353515Y-11535412D01*
X10353515Y-11535412D02*
X10334467Y-11554460D01*
X10334467Y-11554460D02*
X10305896Y-11563984D01*
X10305896Y-11563984D02*
X10258277Y-11563984D01*
X10458277Y-11563984D02*
X10458277Y-11430650D01*
X10458277Y-11468746D02*
X10467801Y-11449698D01*
X10467801Y-11449698D02*
X10477324Y-11440174D01*
X10477324Y-11440174D02*
X10496372Y-11430650D01*
X10496372Y-11430650D02*
X10515420Y-11430650D01*
X10582086Y-11563984D02*
X10582086Y-11430650D01*
X10582086Y-11363984D02*
X10572563Y-11373508D01*
X10572563Y-11373508D02*
X10582086Y-11383031D01*
X10582086Y-11383031D02*
X10591610Y-11373508D01*
X10591610Y-11373508D02*
X10582086Y-11363984D01*
X10582086Y-11363984D02*
X10582086Y-11383031D01*
X10705896Y-11563984D02*
X10686848Y-11554460D01*
X10686848Y-11554460D02*
X10677324Y-11535412D01*
X10677324Y-11535412D02*
X10677324Y-11363984D01*
X10810658Y-11563984D02*
X10791610Y-11554460D01*
X10791610Y-11554460D02*
X10782086Y-11535412D01*
X10782086Y-11535412D02*
X10782086Y-11363984D01*
X11039229Y-11563984D02*
X11039229Y-11363984D01*
X11039229Y-11363984D02*
X11105896Y-11506841D01*
X11105896Y-11506841D02*
X11172563Y-11363984D01*
X11172563Y-11363984D02*
X11172563Y-11563984D01*
X11353515Y-11563984D02*
X11353515Y-11459222D01*
X11353515Y-11459222D02*
X11343991Y-11440174D01*
X11343991Y-11440174D02*
X11324943Y-11430650D01*
X11324943Y-11430650D02*
X11286848Y-11430650D01*
X11286848Y-11430650D02*
X11267801Y-11440174D01*
X11353515Y-11554460D02*
X11334467Y-11563984D01*
X11334467Y-11563984D02*
X11286848Y-11563984D01*
X11286848Y-11563984D02*
X11267801Y-11554460D01*
X11267801Y-11554460D02*
X11258277Y-11535412D01*
X11258277Y-11535412D02*
X11258277Y-11516365D01*
X11258277Y-11516365D02*
X11267801Y-11497317D01*
X11267801Y-11497317D02*
X11286848Y-11487793D01*
X11286848Y-11487793D02*
X11334467Y-11487793D01*
X11334467Y-11487793D02*
X11353515Y-11478269D01*
X11448753Y-11430650D02*
X11448753Y-11630650D01*
X11448753Y-11440174D02*
X11467801Y-11430650D01*
X11467801Y-11430650D02*
X11505896Y-11430650D01*
X11505896Y-11430650D02*
X11524943Y-11440174D01*
X11524943Y-11440174D02*
X11534467Y-11449698D01*
X11534467Y-11449698D02*
X11543991Y-11468746D01*
X11543991Y-11468746D02*
X11543991Y-11525888D01*
X11543991Y-11525888D02*
X11534467Y-11544936D01*
X11534467Y-11544936D02*
X11524943Y-11554460D01*
X11524943Y-11554460D02*
X11505896Y-11563984D01*
X11505896Y-11563984D02*
X11467801Y-11563984D01*
X11467801Y-11563984D02*
X11448753Y-11554460D01*
X11629705Y-11544936D02*
X11639229Y-11554460D01*
X11639229Y-11554460D02*
X11629705Y-11563984D01*
X11629705Y-11563984D02*
X11620182Y-11554460D01*
X11620182Y-11554460D02*
X11629705Y-11544936D01*
X11629705Y-11544936D02*
X11629705Y-11563984D01*
X11629705Y-11440174D02*
X11639229Y-11449698D01*
X11639229Y-11449698D02*
X11629705Y-11459222D01*
X11629705Y-11459222D02*
X11620182Y-11449698D01*
X11620182Y-11449698D02*
X11629705Y-11440174D01*
X11629705Y-11440174D02*
X11629705Y-11459222D01*
D12*
X9967500Y-11877500D02*
X9997500Y-11907500D01*
X9997500Y-11877500D02*
X9967500Y-11907500D01*
D11*
X10296372Y-11783984D02*
X10315420Y-11783984D01*
X10315420Y-11783984D02*
X10334467Y-11793508D01*
X10334467Y-11793508D02*
X10343991Y-11803031D01*
X10343991Y-11803031D02*
X10353515Y-11822079D01*
X10353515Y-11822079D02*
X10363039Y-11860174D01*
X10363039Y-11860174D02*
X10363039Y-11907793D01*
X10363039Y-11907793D02*
X10353515Y-11945888D01*
X10353515Y-11945888D02*
X10343991Y-11964936D01*
X10343991Y-11964936D02*
X10334467Y-11974460D01*
X10334467Y-11974460D02*
X10315420Y-11983984D01*
X10315420Y-11983984D02*
X10296372Y-11983984D01*
X10296372Y-11983984D02*
X10277324Y-11974460D01*
X10277324Y-11974460D02*
X10267801Y-11964936D01*
X10267801Y-11964936D02*
X10258277Y-11945888D01*
X10258277Y-11945888D02*
X10248753Y-11907793D01*
X10248753Y-11907793D02*
X10248753Y-11860174D01*
X10248753Y-11860174D02*
X10258277Y-11822079D01*
X10258277Y-11822079D02*
X10267801Y-11803031D01*
X10267801Y-11803031D02*
X10277324Y-11793508D01*
X10277324Y-11793508D02*
X10296372Y-11783984D01*
X10448753Y-11964936D02*
X10458277Y-11974460D01*
X10458277Y-11974460D02*
X10448753Y-11983984D01*
X10448753Y-11983984D02*
X10439229Y-11974460D01*
X10439229Y-11974460D02*
X10448753Y-11964936D01*
X10448753Y-11964936D02*
X10448753Y-11983984D01*
X10524944Y-11783984D02*
X10648753Y-11783984D01*
X10648753Y-11783984D02*
X10582086Y-11860174D01*
X10582086Y-11860174D02*
X10610658Y-11860174D01*
X10610658Y-11860174D02*
X10629705Y-11869698D01*
X10629705Y-11869698D02*
X10639229Y-11879222D01*
X10639229Y-11879222D02*
X10648753Y-11898269D01*
X10648753Y-11898269D02*
X10648753Y-11945888D01*
X10648753Y-11945888D02*
X10639229Y-11964936D01*
X10639229Y-11964936D02*
X10629705Y-11974460D01*
X10629705Y-11974460D02*
X10610658Y-11983984D01*
X10610658Y-11983984D02*
X10553515Y-11983984D01*
X10553515Y-11983984D02*
X10534467Y-11974460D01*
X10534467Y-11974460D02*
X10524944Y-11964936D01*
X10772563Y-11783984D02*
X10791610Y-11783984D01*
X10791610Y-11783984D02*
X10810658Y-11793508D01*
X10810658Y-11793508D02*
X10820182Y-11803031D01*
X10820182Y-11803031D02*
X10829705Y-11822079D01*
X10829705Y-11822079D02*
X10839229Y-11860174D01*
X10839229Y-11860174D02*
X10839229Y-11907793D01*
X10839229Y-11907793D02*
X10829705Y-11945888D01*
X10829705Y-11945888D02*
X10820182Y-11964936D01*
X10820182Y-11964936D02*
X10810658Y-11974460D01*
X10810658Y-11974460D02*
X10791610Y-11983984D01*
X10791610Y-11983984D02*
X10772563Y-11983984D01*
X10772563Y-11983984D02*
X10753515Y-11974460D01*
X10753515Y-11974460D02*
X10743991Y-11964936D01*
X10743991Y-11964936D02*
X10734467Y-11945888D01*
X10734467Y-11945888D02*
X10724944Y-11907793D01*
X10724944Y-11907793D02*
X10724944Y-11860174D01*
X10724944Y-11860174D02*
X10734467Y-11822079D01*
X10734467Y-11822079D02*
X10743991Y-11803031D01*
X10743991Y-11803031D02*
X10753515Y-11793508D01*
X10753515Y-11793508D02*
X10772563Y-11783984D01*
X10963039Y-11783984D02*
X10982086Y-11783984D01*
X10982086Y-11783984D02*
X11001134Y-11793508D01*
X11001134Y-11793508D02*
X11010658Y-11803031D01*
X11010658Y-11803031D02*
X11020182Y-11822079D01*
X11020182Y-11822079D02*
X11029705Y-11860174D01*
X11029705Y-11860174D02*
X11029705Y-11907793D01*
X11029705Y-11907793D02*
X11020182Y-11945888D01*
X11020182Y-11945888D02*
X11010658Y-11964936D01*
X11010658Y-11964936D02*
X11001134Y-11974460D01*
X11001134Y-11974460D02*
X10982086Y-11983984D01*
X10982086Y-11983984D02*
X10963039Y-11983984D01*
X10963039Y-11983984D02*
X10943991Y-11974460D01*
X10943991Y-11974460D02*
X10934467Y-11964936D01*
X10934467Y-11964936D02*
X10924944Y-11945888D01*
X10924944Y-11945888D02*
X10915420Y-11907793D01*
X10915420Y-11907793D02*
X10915420Y-11860174D01*
X10915420Y-11860174D02*
X10924944Y-11822079D01*
X10924944Y-11822079D02*
X10934467Y-11803031D01*
X10934467Y-11803031D02*
X10943991Y-11793508D01*
X10943991Y-11793508D02*
X10963039Y-11783984D01*
X11115420Y-11983984D02*
X11115420Y-11850650D01*
X11115420Y-11869698D02*
X11124944Y-11860174D01*
X11124944Y-11860174D02*
X11143991Y-11850650D01*
X11143991Y-11850650D02*
X11172563Y-11850650D01*
X11172563Y-11850650D02*
X11191610Y-11860174D01*
X11191610Y-11860174D02*
X11201134Y-11879222D01*
X11201134Y-11879222D02*
X11201134Y-11983984D01*
X11201134Y-11879222D02*
X11210658Y-11860174D01*
X11210658Y-11860174D02*
X11229705Y-11850650D01*
X11229705Y-11850650D02*
X11258277Y-11850650D01*
X11258277Y-11850650D02*
X11277324Y-11860174D01*
X11277324Y-11860174D02*
X11286848Y-11879222D01*
X11286848Y-11879222D02*
X11286848Y-11983984D01*
X11382086Y-11983984D02*
X11382086Y-11850650D01*
X11382086Y-11869698D02*
X11391610Y-11860174D01*
X11391610Y-11860174D02*
X11410658Y-11850650D01*
X11410658Y-11850650D02*
X11439229Y-11850650D01*
X11439229Y-11850650D02*
X11458277Y-11860174D01*
X11458277Y-11860174D02*
X11467801Y-11879222D01*
X11467801Y-11879222D02*
X11467801Y-11983984D01*
X11467801Y-11879222D02*
X11477324Y-11860174D01*
X11477324Y-11860174D02*
X11496372Y-11850650D01*
X11496372Y-11850650D02*
X11524943Y-11850650D01*
X11524943Y-11850650D02*
X11543991Y-11860174D01*
X11543991Y-11860174D02*
X11553515Y-11879222D01*
X11553515Y-11879222D02*
X11553515Y-11983984D01*
X11943991Y-11774460D02*
X11772563Y-12031603D01*
X12201134Y-11783984D02*
X12220182Y-11783984D01*
X12220182Y-11783984D02*
X12239229Y-11793508D01*
X12239229Y-11793508D02*
X12248753Y-11803031D01*
X12248753Y-11803031D02*
X12258277Y-11822079D01*
X12258277Y-11822079D02*
X12267801Y-11860174D01*
X12267801Y-11860174D02*
X12267801Y-11907793D01*
X12267801Y-11907793D02*
X12258277Y-11945888D01*
X12258277Y-11945888D02*
X12248753Y-11964936D01*
X12248753Y-11964936D02*
X12239229Y-11974460D01*
X12239229Y-11974460D02*
X12220182Y-11983984D01*
X12220182Y-11983984D02*
X12201134Y-11983984D01*
X12201134Y-11983984D02*
X12182086Y-11974460D01*
X12182086Y-11974460D02*
X12172563Y-11964936D01*
X12172563Y-11964936D02*
X12163039Y-11945888D01*
X12163039Y-11945888D02*
X12153515Y-11907793D01*
X12153515Y-11907793D02*
X12153515Y-11860174D01*
X12153515Y-11860174D02*
X12163039Y-11822079D01*
X12163039Y-11822079D02*
X12172563Y-11803031D01*
X12172563Y-11803031D02*
X12182086Y-11793508D01*
X12182086Y-11793508D02*
X12201134Y-11783984D01*
X12353515Y-11964936D02*
X12363039Y-11974460D01*
X12363039Y-11974460D02*
X12353515Y-11983984D01*
X12353515Y-11983984D02*
X12343991Y-11974460D01*
X12343991Y-11974460D02*
X12353515Y-11964936D01*
X12353515Y-11964936D02*
X12353515Y-11983984D01*
X12486848Y-11783984D02*
X12505896Y-11783984D01*
X12505896Y-11783984D02*
X12524944Y-11793508D01*
X12524944Y-11793508D02*
X12534467Y-11803031D01*
X12534467Y-11803031D02*
X12543991Y-11822079D01*
X12543991Y-11822079D02*
X12553515Y-11860174D01*
X12553515Y-11860174D02*
X12553515Y-11907793D01*
X12553515Y-11907793D02*
X12543991Y-11945888D01*
X12543991Y-11945888D02*
X12534467Y-11964936D01*
X12534467Y-11964936D02*
X12524944Y-11974460D01*
X12524944Y-11974460D02*
X12505896Y-11983984D01*
X12505896Y-11983984D02*
X12486848Y-11983984D01*
X12486848Y-11983984D02*
X12467801Y-11974460D01*
X12467801Y-11974460D02*
X12458277Y-11964936D01*
X12458277Y-11964936D02*
X12448753Y-11945888D01*
X12448753Y-11945888D02*
X12439229Y-11907793D01*
X12439229Y-11907793D02*
X12439229Y-11860174D01*
X12439229Y-11860174D02*
X12448753Y-11822079D01*
X12448753Y-11822079D02*
X12458277Y-11803031D01*
X12458277Y-11803031D02*
X12467801Y-11793508D01*
X12467801Y-11793508D02*
X12486848Y-11783984D01*
X12743991Y-11983984D02*
X12629706Y-11983984D01*
X12686848Y-11983984D02*
X12686848Y-11783984D01*
X12686848Y-11783984D02*
X12667801Y-11812555D01*
X12667801Y-11812555D02*
X12648753Y-11831603D01*
X12648753Y-11831603D02*
X12629706Y-11841127D01*
X12934467Y-11983984D02*
X12820182Y-11983984D01*
X12877325Y-11983984D02*
X12877325Y-11783984D01*
X12877325Y-11783984D02*
X12858277Y-11812555D01*
X12858277Y-11812555D02*
X12839229Y-11831603D01*
X12839229Y-11831603D02*
X12820182Y-11841127D01*
X13048753Y-11869698D02*
X13029706Y-11860174D01*
X13029706Y-11860174D02*
X13020182Y-11850650D01*
X13020182Y-11850650D02*
X13010658Y-11831603D01*
X13010658Y-11831603D02*
X13010658Y-11822079D01*
X13010658Y-11822079D02*
X13020182Y-11803031D01*
X13020182Y-11803031D02*
X13029706Y-11793508D01*
X13029706Y-11793508D02*
X13048753Y-11783984D01*
X13048753Y-11783984D02*
X13086848Y-11783984D01*
X13086848Y-11783984D02*
X13105896Y-11793508D01*
X13105896Y-11793508D02*
X13115420Y-11803031D01*
X13115420Y-11803031D02*
X13124944Y-11822079D01*
X13124944Y-11822079D02*
X13124944Y-11831603D01*
X13124944Y-11831603D02*
X13115420Y-11850650D01*
X13115420Y-11850650D02*
X13105896Y-11860174D01*
X13105896Y-11860174D02*
X13086848Y-11869698D01*
X13086848Y-11869698D02*
X13048753Y-11869698D01*
X13048753Y-11869698D02*
X13029706Y-11879222D01*
X13029706Y-11879222D02*
X13020182Y-11888746D01*
X13020182Y-11888746D02*
X13010658Y-11907793D01*
X13010658Y-11907793D02*
X13010658Y-11945888D01*
X13010658Y-11945888D02*
X13020182Y-11964936D01*
X13020182Y-11964936D02*
X13029706Y-11974460D01*
X13029706Y-11974460D02*
X13048753Y-11983984D01*
X13048753Y-11983984D02*
X13086848Y-11983984D01*
X13086848Y-11983984D02*
X13105896Y-11974460D01*
X13105896Y-11974460D02*
X13115420Y-11964936D01*
X13115420Y-11964936D02*
X13124944Y-11945888D01*
X13124944Y-11945888D02*
X13124944Y-11907793D01*
X13124944Y-11907793D02*
X13115420Y-11888746D01*
X13115420Y-11888746D02*
X13105896Y-11879222D01*
X13105896Y-11879222D02*
X13086848Y-11869698D01*
X13201134Y-11783984D02*
X13201134Y-11822079D01*
X13277325Y-11783984D02*
X13277325Y-11822079D01*
X13572563Y-12060174D02*
X13563039Y-12050650D01*
X13563039Y-12050650D02*
X13543991Y-12022079D01*
X13543991Y-12022079D02*
X13534468Y-12003031D01*
X13534468Y-12003031D02*
X13524944Y-11974460D01*
X13524944Y-11974460D02*
X13515420Y-11926841D01*
X13515420Y-11926841D02*
X13515420Y-11888746D01*
X13515420Y-11888746D02*
X13524944Y-11841127D01*
X13524944Y-11841127D02*
X13534468Y-11812555D01*
X13534468Y-11812555D02*
X13543991Y-11793508D01*
X13543991Y-11793508D02*
X13563039Y-11764936D01*
X13563039Y-11764936D02*
X13572563Y-11755412D01*
X13639229Y-11803031D02*
X13648753Y-11793508D01*
X13648753Y-11793508D02*
X13667801Y-11783984D01*
X13667801Y-11783984D02*
X13715420Y-11783984D01*
X13715420Y-11783984D02*
X13734468Y-11793508D01*
X13734468Y-11793508D02*
X13743991Y-11803031D01*
X13743991Y-11803031D02*
X13753515Y-11822079D01*
X13753515Y-11822079D02*
X13753515Y-11841127D01*
X13753515Y-11841127D02*
X13743991Y-11869698D01*
X13743991Y-11869698D02*
X13629706Y-11983984D01*
X13629706Y-11983984D02*
X13753515Y-11983984D01*
X13991610Y-11983984D02*
X13991610Y-11783984D01*
X14077325Y-11983984D02*
X14077325Y-11879222D01*
X14077325Y-11879222D02*
X14067801Y-11860174D01*
X14067801Y-11860174D02*
X14048753Y-11850650D01*
X14048753Y-11850650D02*
X14020182Y-11850650D01*
X14020182Y-11850650D02*
X14001134Y-11860174D01*
X14001134Y-11860174D02*
X13991610Y-11869698D01*
X14201134Y-11983984D02*
X14182087Y-11974460D01*
X14182087Y-11974460D02*
X14172563Y-11964936D01*
X14172563Y-11964936D02*
X14163039Y-11945888D01*
X14163039Y-11945888D02*
X14163039Y-11888746D01*
X14163039Y-11888746D02*
X14172563Y-11869698D01*
X14172563Y-11869698D02*
X14182087Y-11860174D01*
X14182087Y-11860174D02*
X14201134Y-11850650D01*
X14201134Y-11850650D02*
X14229706Y-11850650D01*
X14229706Y-11850650D02*
X14248753Y-11860174D01*
X14248753Y-11860174D02*
X14258277Y-11869698D01*
X14258277Y-11869698D02*
X14267801Y-11888746D01*
X14267801Y-11888746D02*
X14267801Y-11945888D01*
X14267801Y-11945888D02*
X14258277Y-11964936D01*
X14258277Y-11964936D02*
X14248753Y-11974460D01*
X14248753Y-11974460D02*
X14229706Y-11983984D01*
X14229706Y-11983984D02*
X14201134Y-11983984D01*
X14382087Y-11983984D02*
X14363039Y-11974460D01*
X14363039Y-11974460D02*
X14353515Y-11955412D01*
X14353515Y-11955412D02*
X14353515Y-11783984D01*
X14534468Y-11974460D02*
X14515420Y-11983984D01*
X14515420Y-11983984D02*
X14477325Y-11983984D01*
X14477325Y-11983984D02*
X14458277Y-11974460D01*
X14458277Y-11974460D02*
X14448753Y-11955412D01*
X14448753Y-11955412D02*
X14448753Y-11879222D01*
X14448753Y-11879222D02*
X14458277Y-11860174D01*
X14458277Y-11860174D02*
X14477325Y-11850650D01*
X14477325Y-11850650D02*
X14515420Y-11850650D01*
X14515420Y-11850650D02*
X14534468Y-11860174D01*
X14534468Y-11860174D02*
X14543991Y-11879222D01*
X14543991Y-11879222D02*
X14543991Y-11898269D01*
X14543991Y-11898269D02*
X14448753Y-11917317D01*
X14620182Y-11974460D02*
X14639230Y-11983984D01*
X14639230Y-11983984D02*
X14677325Y-11983984D01*
X14677325Y-11983984D02*
X14696372Y-11974460D01*
X14696372Y-11974460D02*
X14705896Y-11955412D01*
X14705896Y-11955412D02*
X14705896Y-11945888D01*
X14705896Y-11945888D02*
X14696372Y-11926841D01*
X14696372Y-11926841D02*
X14677325Y-11917317D01*
X14677325Y-11917317D02*
X14648753Y-11917317D01*
X14648753Y-11917317D02*
X14629706Y-11907793D01*
X14629706Y-11907793D02*
X14620182Y-11888746D01*
X14620182Y-11888746D02*
X14620182Y-11879222D01*
X14620182Y-11879222D02*
X14629706Y-11860174D01*
X14629706Y-11860174D02*
X14648753Y-11850650D01*
X14648753Y-11850650D02*
X14677325Y-11850650D01*
X14677325Y-11850650D02*
X14696372Y-11860174D01*
X14772563Y-12060174D02*
X14782087Y-12050650D01*
X14782087Y-12050650D02*
X14801134Y-12022079D01*
X14801134Y-12022079D02*
X14810658Y-12003031D01*
X14810658Y-12003031D02*
X14820182Y-11974460D01*
X14820182Y-11974460D02*
X14829706Y-11926841D01*
X14829706Y-11926841D02*
X14829706Y-11888746D01*
X14829706Y-11888746D02*
X14820182Y-11841127D01*
X14820182Y-11841127D02*
X14810658Y-11812555D01*
X14810658Y-11812555D02*
X14801134Y-11793508D01*
X14801134Y-11793508D02*
X14782087Y-11764936D01*
X14782087Y-11764936D02*
X14772563Y-11755412D01*
D12*
X9997500Y-12156500D02*
G75*
G03*
X9897500Y-12156500I-50000J0D01*
G01*
X9897500Y-12156500D02*
G75*
G03*
X9997500Y-12156500I50000J0D01*
G01*
D11*
X10363039Y-12247984D02*
X10248753Y-12247984D01*
X10305896Y-12247984D02*
X10305896Y-12047984D01*
X10305896Y-12047984D02*
X10286848Y-12076555D01*
X10286848Y-12076555D02*
X10267801Y-12095603D01*
X10267801Y-12095603D02*
X10248753Y-12105127D01*
X10448753Y-12228936D02*
X10458277Y-12238460D01*
X10458277Y-12238460D02*
X10448753Y-12247984D01*
X10448753Y-12247984D02*
X10439229Y-12238460D01*
X10439229Y-12238460D02*
X10448753Y-12228936D01*
X10448753Y-12228936D02*
X10448753Y-12247984D01*
X10582086Y-12047984D02*
X10601134Y-12047984D01*
X10601134Y-12047984D02*
X10620182Y-12057508D01*
X10620182Y-12057508D02*
X10629705Y-12067031D01*
X10629705Y-12067031D02*
X10639229Y-12086079D01*
X10639229Y-12086079D02*
X10648753Y-12124174D01*
X10648753Y-12124174D02*
X10648753Y-12171793D01*
X10648753Y-12171793D02*
X10639229Y-12209888D01*
X10639229Y-12209888D02*
X10629705Y-12228936D01*
X10629705Y-12228936D02*
X10620182Y-12238460D01*
X10620182Y-12238460D02*
X10601134Y-12247984D01*
X10601134Y-12247984D02*
X10582086Y-12247984D01*
X10582086Y-12247984D02*
X10563039Y-12238460D01*
X10563039Y-12238460D02*
X10553515Y-12228936D01*
X10553515Y-12228936D02*
X10543991Y-12209888D01*
X10543991Y-12209888D02*
X10534467Y-12171793D01*
X10534467Y-12171793D02*
X10534467Y-12124174D01*
X10534467Y-12124174D02*
X10543991Y-12086079D01*
X10543991Y-12086079D02*
X10553515Y-12067031D01*
X10553515Y-12067031D02*
X10563039Y-12057508D01*
X10563039Y-12057508D02*
X10582086Y-12047984D01*
X10772563Y-12047984D02*
X10791610Y-12047984D01*
X10791610Y-12047984D02*
X10810658Y-12057508D01*
X10810658Y-12057508D02*
X10820182Y-12067031D01*
X10820182Y-12067031D02*
X10829705Y-12086079D01*
X10829705Y-12086079D02*
X10839229Y-12124174D01*
X10839229Y-12124174D02*
X10839229Y-12171793D01*
X10839229Y-12171793D02*
X10829705Y-12209888D01*
X10829705Y-12209888D02*
X10820182Y-12228936D01*
X10820182Y-12228936D02*
X10810658Y-12238460D01*
X10810658Y-12238460D02*
X10791610Y-12247984D01*
X10791610Y-12247984D02*
X10772563Y-12247984D01*
X10772563Y-12247984D02*
X10753515Y-12238460D01*
X10753515Y-12238460D02*
X10743991Y-12228936D01*
X10743991Y-12228936D02*
X10734467Y-12209888D01*
X10734467Y-12209888D02*
X10724944Y-12171793D01*
X10724944Y-12171793D02*
X10724944Y-12124174D01*
X10724944Y-12124174D02*
X10734467Y-12086079D01*
X10734467Y-12086079D02*
X10743991Y-12067031D01*
X10743991Y-12067031D02*
X10753515Y-12057508D01*
X10753515Y-12057508D02*
X10772563Y-12047984D01*
X10963039Y-12047984D02*
X10982086Y-12047984D01*
X10982086Y-12047984D02*
X11001134Y-12057508D01*
X11001134Y-12057508D02*
X11010658Y-12067031D01*
X11010658Y-12067031D02*
X11020182Y-12086079D01*
X11020182Y-12086079D02*
X11029705Y-12124174D01*
X11029705Y-12124174D02*
X11029705Y-12171793D01*
X11029705Y-12171793D02*
X11020182Y-12209888D01*
X11020182Y-12209888D02*
X11010658Y-12228936D01*
X11010658Y-12228936D02*
X11001134Y-12238460D01*
X11001134Y-12238460D02*
X10982086Y-12247984D01*
X10982086Y-12247984D02*
X10963039Y-12247984D01*
X10963039Y-12247984D02*
X10943991Y-12238460D01*
X10943991Y-12238460D02*
X10934467Y-12228936D01*
X10934467Y-12228936D02*
X10924944Y-12209888D01*
X10924944Y-12209888D02*
X10915420Y-12171793D01*
X10915420Y-12171793D02*
X10915420Y-12124174D01*
X10915420Y-12124174D02*
X10924944Y-12086079D01*
X10924944Y-12086079D02*
X10934467Y-12067031D01*
X10934467Y-12067031D02*
X10943991Y-12057508D01*
X10943991Y-12057508D02*
X10963039Y-12047984D01*
X11115420Y-12247984D02*
X11115420Y-12114650D01*
X11115420Y-12133698D02*
X11124944Y-12124174D01*
X11124944Y-12124174D02*
X11143991Y-12114650D01*
X11143991Y-12114650D02*
X11172563Y-12114650D01*
X11172563Y-12114650D02*
X11191610Y-12124174D01*
X11191610Y-12124174D02*
X11201134Y-12143222D01*
X11201134Y-12143222D02*
X11201134Y-12247984D01*
X11201134Y-12143222D02*
X11210658Y-12124174D01*
X11210658Y-12124174D02*
X11229705Y-12114650D01*
X11229705Y-12114650D02*
X11258277Y-12114650D01*
X11258277Y-12114650D02*
X11277324Y-12124174D01*
X11277324Y-12124174D02*
X11286848Y-12143222D01*
X11286848Y-12143222D02*
X11286848Y-12247984D01*
X11382086Y-12247984D02*
X11382086Y-12114650D01*
X11382086Y-12133698D02*
X11391610Y-12124174D01*
X11391610Y-12124174D02*
X11410658Y-12114650D01*
X11410658Y-12114650D02*
X11439229Y-12114650D01*
X11439229Y-12114650D02*
X11458277Y-12124174D01*
X11458277Y-12124174D02*
X11467801Y-12143222D01*
X11467801Y-12143222D02*
X11467801Y-12247984D01*
X11467801Y-12143222D02*
X11477324Y-12124174D01*
X11477324Y-12124174D02*
X11496372Y-12114650D01*
X11496372Y-12114650D02*
X11524943Y-12114650D01*
X11524943Y-12114650D02*
X11543991Y-12124174D01*
X11543991Y-12124174D02*
X11553515Y-12143222D01*
X11553515Y-12143222D02*
X11553515Y-12247984D01*
X11943991Y-12038460D02*
X11772563Y-12295603D01*
X12201134Y-12047984D02*
X12220182Y-12047984D01*
X12220182Y-12047984D02*
X12239229Y-12057508D01*
X12239229Y-12057508D02*
X12248753Y-12067031D01*
X12248753Y-12067031D02*
X12258277Y-12086079D01*
X12258277Y-12086079D02*
X12267801Y-12124174D01*
X12267801Y-12124174D02*
X12267801Y-12171793D01*
X12267801Y-12171793D02*
X12258277Y-12209888D01*
X12258277Y-12209888D02*
X12248753Y-12228936D01*
X12248753Y-12228936D02*
X12239229Y-12238460D01*
X12239229Y-12238460D02*
X12220182Y-12247984D01*
X12220182Y-12247984D02*
X12201134Y-12247984D01*
X12201134Y-12247984D02*
X12182086Y-12238460D01*
X12182086Y-12238460D02*
X12172563Y-12228936D01*
X12172563Y-12228936D02*
X12163039Y-12209888D01*
X12163039Y-12209888D02*
X12153515Y-12171793D01*
X12153515Y-12171793D02*
X12153515Y-12124174D01*
X12153515Y-12124174D02*
X12163039Y-12086079D01*
X12163039Y-12086079D02*
X12172563Y-12067031D01*
X12172563Y-12067031D02*
X12182086Y-12057508D01*
X12182086Y-12057508D02*
X12201134Y-12047984D01*
X12353515Y-12228936D02*
X12363039Y-12238460D01*
X12363039Y-12238460D02*
X12353515Y-12247984D01*
X12353515Y-12247984D02*
X12343991Y-12238460D01*
X12343991Y-12238460D02*
X12353515Y-12228936D01*
X12353515Y-12228936D02*
X12353515Y-12247984D01*
X12486848Y-12047984D02*
X12505896Y-12047984D01*
X12505896Y-12047984D02*
X12524944Y-12057508D01*
X12524944Y-12057508D02*
X12534467Y-12067031D01*
X12534467Y-12067031D02*
X12543991Y-12086079D01*
X12543991Y-12086079D02*
X12553515Y-12124174D01*
X12553515Y-12124174D02*
X12553515Y-12171793D01*
X12553515Y-12171793D02*
X12543991Y-12209888D01*
X12543991Y-12209888D02*
X12534467Y-12228936D01*
X12534467Y-12228936D02*
X12524944Y-12238460D01*
X12524944Y-12238460D02*
X12505896Y-12247984D01*
X12505896Y-12247984D02*
X12486848Y-12247984D01*
X12486848Y-12247984D02*
X12467801Y-12238460D01*
X12467801Y-12238460D02*
X12458277Y-12228936D01*
X12458277Y-12228936D02*
X12448753Y-12209888D01*
X12448753Y-12209888D02*
X12439229Y-12171793D01*
X12439229Y-12171793D02*
X12439229Y-12124174D01*
X12439229Y-12124174D02*
X12448753Y-12086079D01*
X12448753Y-12086079D02*
X12458277Y-12067031D01*
X12458277Y-12067031D02*
X12467801Y-12057508D01*
X12467801Y-12057508D02*
X12486848Y-12047984D01*
X12620182Y-12047984D02*
X12743991Y-12047984D01*
X12743991Y-12047984D02*
X12677325Y-12124174D01*
X12677325Y-12124174D02*
X12705896Y-12124174D01*
X12705896Y-12124174D02*
X12724944Y-12133698D01*
X12724944Y-12133698D02*
X12734467Y-12143222D01*
X12734467Y-12143222D02*
X12743991Y-12162269D01*
X12743991Y-12162269D02*
X12743991Y-12209888D01*
X12743991Y-12209888D02*
X12734467Y-12228936D01*
X12734467Y-12228936D02*
X12724944Y-12238460D01*
X12724944Y-12238460D02*
X12705896Y-12247984D01*
X12705896Y-12247984D02*
X12648753Y-12247984D01*
X12648753Y-12247984D02*
X12629706Y-12238460D01*
X12629706Y-12238460D02*
X12620182Y-12228936D01*
X12839229Y-12247984D02*
X12877325Y-12247984D01*
X12877325Y-12247984D02*
X12896372Y-12238460D01*
X12896372Y-12238460D02*
X12905896Y-12228936D01*
X12905896Y-12228936D02*
X12924944Y-12200365D01*
X12924944Y-12200365D02*
X12934467Y-12162269D01*
X12934467Y-12162269D02*
X12934467Y-12086079D01*
X12934467Y-12086079D02*
X12924944Y-12067031D01*
X12924944Y-12067031D02*
X12915420Y-12057508D01*
X12915420Y-12057508D02*
X12896372Y-12047984D01*
X12896372Y-12047984D02*
X12858277Y-12047984D01*
X12858277Y-12047984D02*
X12839229Y-12057508D01*
X12839229Y-12057508D02*
X12829706Y-12067031D01*
X12829706Y-12067031D02*
X12820182Y-12086079D01*
X12820182Y-12086079D02*
X12820182Y-12133698D01*
X12820182Y-12133698D02*
X12829706Y-12152746D01*
X12829706Y-12152746D02*
X12839229Y-12162269D01*
X12839229Y-12162269D02*
X12858277Y-12171793D01*
X12858277Y-12171793D02*
X12896372Y-12171793D01*
X12896372Y-12171793D02*
X12915420Y-12162269D01*
X12915420Y-12162269D02*
X12924944Y-12152746D01*
X12924944Y-12152746D02*
X12934467Y-12133698D01*
X13105896Y-12114650D02*
X13105896Y-12247984D01*
X13058277Y-12038460D02*
X13010658Y-12181317D01*
X13010658Y-12181317D02*
X13134467Y-12181317D01*
X13201134Y-12047984D02*
X13201134Y-12086079D01*
X13277325Y-12047984D02*
X13277325Y-12086079D01*
X13572563Y-12324174D02*
X13563039Y-12314650D01*
X13563039Y-12314650D02*
X13543991Y-12286079D01*
X13543991Y-12286079D02*
X13534468Y-12267031D01*
X13534468Y-12267031D02*
X13524944Y-12238460D01*
X13524944Y-12238460D02*
X13515420Y-12190841D01*
X13515420Y-12190841D02*
X13515420Y-12152746D01*
X13515420Y-12152746D02*
X13524944Y-12105127D01*
X13524944Y-12105127D02*
X13534468Y-12076555D01*
X13534468Y-12076555D02*
X13543991Y-12057508D01*
X13543991Y-12057508D02*
X13563039Y-12028936D01*
X13563039Y-12028936D02*
X13572563Y-12019412D01*
X13734468Y-12114650D02*
X13734468Y-12247984D01*
X13686848Y-12038460D02*
X13639229Y-12181317D01*
X13639229Y-12181317D02*
X13763039Y-12181317D01*
X13991610Y-12247984D02*
X13991610Y-12047984D01*
X14077325Y-12247984D02*
X14077325Y-12143222D01*
X14077325Y-12143222D02*
X14067801Y-12124174D01*
X14067801Y-12124174D02*
X14048753Y-12114650D01*
X14048753Y-12114650D02*
X14020182Y-12114650D01*
X14020182Y-12114650D02*
X14001134Y-12124174D01*
X14001134Y-12124174D02*
X13991610Y-12133698D01*
X14201134Y-12247984D02*
X14182087Y-12238460D01*
X14182087Y-12238460D02*
X14172563Y-12228936D01*
X14172563Y-12228936D02*
X14163039Y-12209888D01*
X14163039Y-12209888D02*
X14163039Y-12152746D01*
X14163039Y-12152746D02*
X14172563Y-12133698D01*
X14172563Y-12133698D02*
X14182087Y-12124174D01*
X14182087Y-12124174D02*
X14201134Y-12114650D01*
X14201134Y-12114650D02*
X14229706Y-12114650D01*
X14229706Y-12114650D02*
X14248753Y-12124174D01*
X14248753Y-12124174D02*
X14258277Y-12133698D01*
X14258277Y-12133698D02*
X14267801Y-12152746D01*
X14267801Y-12152746D02*
X14267801Y-12209888D01*
X14267801Y-12209888D02*
X14258277Y-12228936D01*
X14258277Y-12228936D02*
X14248753Y-12238460D01*
X14248753Y-12238460D02*
X14229706Y-12247984D01*
X14229706Y-12247984D02*
X14201134Y-12247984D01*
X14382087Y-12247984D02*
X14363039Y-12238460D01*
X14363039Y-12238460D02*
X14353515Y-12219412D01*
X14353515Y-12219412D02*
X14353515Y-12047984D01*
X14534468Y-12238460D02*
X14515420Y-12247984D01*
X14515420Y-12247984D02*
X14477325Y-12247984D01*
X14477325Y-12247984D02*
X14458277Y-12238460D01*
X14458277Y-12238460D02*
X14448753Y-12219412D01*
X14448753Y-12219412D02*
X14448753Y-12143222D01*
X14448753Y-12143222D02*
X14458277Y-12124174D01*
X14458277Y-12124174D02*
X14477325Y-12114650D01*
X14477325Y-12114650D02*
X14515420Y-12114650D01*
X14515420Y-12114650D02*
X14534468Y-12124174D01*
X14534468Y-12124174D02*
X14543991Y-12143222D01*
X14543991Y-12143222D02*
X14543991Y-12162269D01*
X14543991Y-12162269D02*
X14448753Y-12181317D01*
X14620182Y-12238460D02*
X14639230Y-12247984D01*
X14639230Y-12247984D02*
X14677325Y-12247984D01*
X14677325Y-12247984D02*
X14696372Y-12238460D01*
X14696372Y-12238460D02*
X14705896Y-12219412D01*
X14705896Y-12219412D02*
X14705896Y-12209888D01*
X14705896Y-12209888D02*
X14696372Y-12190841D01*
X14696372Y-12190841D02*
X14677325Y-12181317D01*
X14677325Y-12181317D02*
X14648753Y-12181317D01*
X14648753Y-12181317D02*
X14629706Y-12171793D01*
X14629706Y-12171793D02*
X14620182Y-12152746D01*
X14620182Y-12152746D02*
X14620182Y-12143222D01*
X14620182Y-12143222D02*
X14629706Y-12124174D01*
X14629706Y-12124174D02*
X14648753Y-12114650D01*
X14648753Y-12114650D02*
X14677325Y-12114650D01*
X14677325Y-12114650D02*
X14696372Y-12124174D01*
X14772563Y-12324174D02*
X14782087Y-12314650D01*
X14782087Y-12314650D02*
X14801134Y-12286079D01*
X14801134Y-12286079D02*
X14810658Y-12267031D01*
X14810658Y-12267031D02*
X14820182Y-12238460D01*
X14820182Y-12238460D02*
X14829706Y-12190841D01*
X14829706Y-12190841D02*
X14829706Y-12152746D01*
X14829706Y-12152746D02*
X14820182Y-12105127D01*
X14820182Y-12105127D02*
X14810658Y-12076555D01*
X14810658Y-12076555D02*
X14801134Y-12057508D01*
X14801134Y-12057508D02*
X14782087Y-12028936D01*
X14782087Y-12028936D02*
X14772563Y-12019412D01*
M02*
